# xmcd
#
# Track frame offsets:
#	150
#	19090
#	40864
#	63396
#	86224
#	111991
#	127386
#	173575
#	192303
#	213954
#	234831
#	247295
#	266787
#	287232
#
# Disc length: 4164 seconds
#
# Revision: 11
# Processed by: cddbd v1.5.2PL0 Copyright (c) Steve Scherf et al.
# Submitted via: Jack! The Knife 20 Magnifico
#
DISCID=d610420e
DTITLE=Rage - Black In Mind
DYEAR=1995
DGENRE=Metal
TTITLE0=Black In Mind
TTITLE1=The Crawling Chaos
TTITLE2=Alive But Dead
TTITLE3=Sent By The Devil
TTITLE4=Shadow Out Of Time
TTITLE5=A Spider's Web
TTITLE6=In A Nameless Time
TTITLE7=The Icecold Hand Of Destiny
TTITLE8=Forever
TTITLE9=Until I Die
TTITLE10=My Rage
TTITLE11=The Price Of War
TTITLE12=Start!
TTITLE13=All This Time
EXTD=Ulli Pössell
EXTT0=S. Efthimiadis, C. Efthimiadis, Wagner
EXTT1=Peter Wagner
EXTT2=C. Efthimiadis, Wagner
EXTT3=Peter Wagner
EXTT4=S. Efthimiadis, Wagner
EXTT5=S. Efthimiadis, Fischer, Wagner
EXTT6=S. Efthimiadis, C. Efthimiadis, Fischer, Wagner
EXTT7=S. Efthimiadis, Wagner
EXTT8=S. Efthimiadis, Wagner
EXTT9=Peter Wagner
EXTT10=Peter Wagner
EXTT11=S. Efthimiadis, Wagner
EXTT12=S. Efthimiadis, Wagner
EXTT13=Peter Wagner
PLAYORDER=
